<svg width="22" height="22" viewBox="0 0 22 22" fill="none" xmlns="http://www.w3.org/2000/svg">
<g clip-path="url(#clip0_546_55759)">
<path d="M9.125 6.25244V7.37911H21.78C21.7623 7.01577 21.7243 6.55644 21.5883 6.25244" fill="#EC1C24"/>
<path d="M20.9917 5.12549H9.125V6.25215H21.5883C21.453 5.83182 21.2517 5.44849 20.9917 5.12549Z" fill="#E6E7E8"/>
<path d="M18.4583 3.99902H9.125V5.12569H20.9917C20.4353 4.42902 19.5197 3.99902 18.4583 3.99902Z" fill="#EC1C24"/>
<path d="M21.78 7.37939H9.125V8.50606H21.7917V7.75506C21.7917 7.68806 21.7873 7.62273 21.7853 7.55706C21.784 7.53906 21.782 7.49273 21.78 7.37939Z" fill="#E6E7E8"/>
<path d="M9.125 9.63204H21.7917V8.50537H9.125V9.63204Z" fill="#EC1C24"/>
<path d="M9.125 10.759H21.7917V9.63232H9.125V10.759Z" fill="#E6E7E8"/>
<path d="M9.125 10.7593H21.7917V11.8859H9.125V10.7593Z" fill="#EC1C24"/>
<path d="M0.453125 11.8857V13.0124H21.7865V11.8857H9.11979H0.453125Z" fill="#E6E7E8"/>
<path d="M0.453125 13.0122H21.7865V14.1389H0.453125V13.0122Z" fill="#EC1C24"/>
<path d="M0.454792 14.8322C0.454792 14.8322 0.451792 15.1052 0.459792 15.2658H21.7798C21.7891 15.1012 21.7848 14.8322 21.7848 14.8322L21.7865 14.1392H0.453125L0.454792 14.8322Z" fill="#E6E7E8"/>
<path d="M3.79104 18.6657H18.4577C19.522 18.6657 20.4067 18.279 21.011 17.519H1.23438C1.85837 18.2957 2.75971 18.6657 3.78937 18.6657" fill="#EC1C24"/>
<path d="M1.23292 17.5188H21.0096C21.2732 17.1838 21.4701 16.8013 21.5896 16.3921H0.65625C0.777949 16.8001 0.974021 17.1821 1.23458 17.5188" fill="#E6E7E8"/>
<path d="M0.662083 16.3923H21.5954C21.7046 16.0258 21.7695 15.6475 21.7888 15.2656H0.46875C0.50175 15.651 0.532417 15.942 0.662083 16.3923Z" fill="#EC1C24"/>
<path d="M9.11979 3.99902H3.78646C1.57746 3.99902 0.453125 5.64069 0.453125 7.66569V11.8857H9.11979V3.99902Z" fill="#176496"/>
<path d="M1.39363 5.99078L1.57496 5.85145L1.75596 5.99078L1.68563 5.76679L1.86596 5.62978H1.64329L1.57429 5.40479L1.50563 5.62978H1.28329L1.46429 5.76679L1.39363 5.99078ZM2.59163 5.99078L2.77296 5.85145L2.95396 5.99078L2.88396 5.76679L3.06396 5.62978H2.84163L2.77262 5.40479L2.70396 5.62978H2.48096L2.66196 5.76679L2.59163 5.99078ZM3.91329 5.99078L4.09429 5.85145L4.27563 5.99078L4.20529 5.76679L4.38529 5.62978H4.16429L4.09429 5.40479L4.02529 5.62978H3.80429L3.98329 5.76679L3.91329 5.99078ZM5.22529 5.99078L5.40629 5.85145L5.58763 5.99078L5.51763 5.76679L5.69763 5.62978H5.47429L5.40629 5.40479L5.33763 5.62978H5.11496L5.29563 5.76679L5.22529 5.99078ZM6.54196 5.99078L6.72329 5.85145L6.90429 5.99078L6.83429 5.76679L7.01463 5.62978H6.79163L6.72296 5.40479L6.65429 5.62978H6.43196L6.61196 5.76679L6.54196 5.99078ZM2.03129 6.57579L2.21229 6.43678L2.39329 6.57579L2.32362 6.35212L2.50362 6.21512H2.28096L2.21196 5.99045L2.14429 6.21512H1.92096L2.10129 6.35212L2.03129 6.57579ZM3.22962 6.57579L3.41062 6.43678L3.59163 6.57579L3.52163 6.35212L3.70163 6.21512H3.47763L3.41062 5.99045L3.34163 6.21512H3.11929L3.29962 6.35212L3.22962 6.57579ZM4.55129 6.57579L4.73196 6.43678L4.91296 6.57579L4.84296 6.35212L5.02329 6.21512H4.80096L4.73196 5.99045L4.66296 6.21512H4.44029L4.62063 6.35212L4.55129 6.57579ZM5.86263 6.57579L6.04396 6.43678L6.22529 6.57579L6.15429 6.35212L6.33496 6.21512H6.11263L6.04362 5.99045L5.97529 6.21512H5.75263L5.93296 6.35212L5.86263 6.57579ZM7.18096 6.57579L7.36063 6.43678L7.54163 6.57579L7.47096 6.35212L7.65163 6.21512H7.42963L7.36029 5.99045L7.29196 6.21512H7.06929L7.24963 6.35212L7.18096 6.57579ZM7.92329 5.99078L8.10429 5.85145L8.28563 5.99078L8.21529 5.76679L8.39529 5.62978H8.17429L8.10396 5.40479L8.03529 5.62978H7.81096L7.99329 5.76679L7.92329 5.99078ZM1.37596 10.6721L1.55729 10.5345L1.73829 10.6721L1.66829 10.4501L1.84829 10.3128L1.62596 10.3135L1.55662 10.0888L1.48862 10.3135L1.26562 10.3128L1.44596 10.4501L1.37596 10.6721ZM2.57429 10.6721L2.75529 10.5345L2.93663 10.6721L2.86629 10.4501L3.04629 10.3128L2.82429 10.3135L2.75496 10.0888L2.68663 10.3135L2.46429 10.3128L2.64429 10.4501L2.57429 10.6721ZM3.89596 10.6721L4.07696 10.5345L4.25829 10.6721L4.18796 10.4501L4.36796 10.3128L4.14429 10.3135L4.07663 10.0888L4.00796 10.3135L3.78562 10.3128L3.96596 10.4501L3.89596 10.6721ZM5.20796 10.6721L5.38896 10.5345L5.56996 10.6721L5.50096 10.4501L5.67996 10.3128L5.45729 10.3135L5.38863 10.0888L5.31996 10.3135L5.09763 10.3128L5.27763 10.4501L5.20796 10.6721ZM6.52429 10.6721L6.70563 10.5345L6.88696 10.6721L6.81763 10.4501L6.99663 10.3128L6.77429 10.3135L6.70529 10.0888L6.63696 10.3135L6.41429 10.3128L6.59429 10.4501L6.52429 10.6721ZM7.90563 10.6721L8.08663 10.5345L8.26796 10.6721L8.19763 10.4501L8.37796 10.3128L8.15429 10.3135L8.08629 10.0888L8.01763 10.3135L7.79429 10.3128L7.97563 10.4501L7.90563 10.6721ZM1.39363 7.16145L1.57496 7.02212L1.75596 7.16145L1.68563 6.93745L1.86596 6.80045L1.64329 6.80112L1.57429 6.57579L1.50563 6.80112L1.28329 6.80045L1.46429 6.93745L1.39363 7.16145ZM2.59163 7.16145L2.77296 7.02212L2.95396 7.16145L2.88396 6.93745L3.06396 6.80045L2.84163 6.80112L2.77262 6.57579L2.70396 6.80112L2.48096 6.80045L2.66196 6.93745L2.59163 7.16145ZM3.91329 7.16145L4.09429 7.02212L4.27563 7.16145L4.20529 6.93745L4.38529 6.80045L4.16429 6.80112L4.09429 6.57579L4.02529 6.80112L3.80429 6.80045L3.98329 6.93745L3.91329 7.16145ZM5.22529 7.16145L5.40629 7.02212L5.58763 7.16145L5.51763 6.93745L5.69763 6.80045L5.47429 6.80112L5.40629 6.57579L5.33763 6.80112L5.11496 6.80045L5.29563 6.93745L5.22529 7.16145ZM6.54196 7.16145L6.72329 7.02212L6.90429 7.16145L6.83429 6.93745L7.01463 6.80045L6.79163 6.80112L6.72296 6.57579L6.65429 6.80112L6.43196 6.80045L6.61196 6.93745L6.54196 7.16145ZM2.03129 7.74678L2.21229 7.60778L2.39329 7.74678L2.32362 7.52312L2.50362 7.38545H2.28096L2.21196 7.16145L2.14429 7.38545H1.92096L2.10129 7.52312L2.03129 7.74678ZM3.22962 7.74678L3.41062 7.60778L3.59163 7.74678L3.52163 7.52312L3.70163 7.38545H3.47763L3.41062 7.16145L3.34163 7.38545H3.11929L3.29962 7.52312L3.22962 7.74678ZM4.55129 7.74678L4.73196 7.60778L4.91296 7.74678L4.84296 7.52312L5.02329 7.38545H4.80096L4.73196 7.16145L4.66296 7.38545H4.44029L4.62063 7.52312L4.55129 7.74678ZM5.86263 7.74678L6.04396 7.60778L6.22529 7.74678L6.15429 7.52312L6.33496 7.38545H6.11263L6.04362 7.16145L5.97529 7.38545H5.75263L5.93296 7.52312L5.86263 7.74678ZM7.18096 7.74678L7.36063 7.60778L7.54163 7.74678L7.47096 7.52312L7.65163 7.38545H7.42963L7.36029 7.16145L7.29196 7.38545H7.06929L7.24963 7.52312L7.18096 7.74678ZM7.92329 7.16145L8.10429 7.02212L8.28563 7.16145L8.21529 6.93745L8.39529 6.80045L8.17429 6.80112L8.10396 6.57579L8.03529 6.80112L7.81096 6.80045L7.99329 6.93745L7.92329 7.16145ZM1.37596 8.33212L1.55729 8.19312L1.73829 8.33212L1.66796 8.10878L1.84829 7.97145L1.62562 7.97212L1.55662 7.74678L1.48862 7.97212L1.26562 7.97145L1.44596 8.10878L1.37596 8.33212ZM2.57429 8.33212L2.75529 8.19312L2.93663 8.33212L2.86629 8.10878L3.04629 7.97145L2.82429 7.97212L2.75496 7.74678L2.68663 7.97212L2.46429 7.97145L2.64396 8.10878L2.57429 8.33212ZM3.89596 8.33212L4.07696 8.19312L4.25796 8.33212L4.18796 8.10878L4.36796 7.97145L4.14429 7.97212L4.07663 7.74678L4.00796 7.97212L3.78562 7.97145L3.96596 8.10878L3.89596 8.33212ZM5.20796 8.33212L5.38863 8.19312L5.56996 8.33212L5.50096 8.10878L5.67996 7.97145L5.45729 7.97212L5.38863 7.74678L5.31996 7.97212L5.09763 7.97145L5.27763 8.10878L5.20796 8.33212ZM6.52429 8.33212L6.70563 8.19312L6.88663 8.33212L6.81763 8.10878L6.99663 7.97145L6.77396 7.97212L6.70529 7.74678L6.63696 7.97212L6.41429 7.97145L6.59429 8.10878L6.52429 8.33212ZM2.01363 8.91745L2.19463 8.77878L2.37563 8.91745L2.30596 8.69545L2.48563 8.55745H2.26296L2.19429 8.33212L2.12596 8.55745H1.90329L2.08363 8.69545L2.01363 8.91745ZM3.21196 8.91745L3.39296 8.77878L3.57396 8.91745L3.50396 8.69545L3.68396 8.55745H3.46096L3.39263 8.33212L3.32396 8.55745H3.10129L3.28196 8.69545L3.21196 8.91745ZM4.53396 8.91745L4.71429 8.77878L4.89562 8.91745L4.82429 8.69545L5.00562 8.55745H4.78329L4.71429 8.33212L4.64562 8.55745H4.42296L4.60329 8.69545L4.53396 8.91745ZM5.84429 8.91745L6.02629 8.77878L6.20763 8.91745L6.13763 8.69545L6.31729 8.55745H6.09496L6.02596 8.33212L5.95763 8.55745H5.73496L5.91529 8.69545L5.84429 8.91745ZM7.16096 8.91745L7.34296 8.77878L7.52429 8.91745L7.45396 8.69545L7.63463 8.55745H7.41229L7.34296 8.33212L7.27429 8.55745H7.05163L7.23196 8.69545L7.16096 8.91745ZM7.90563 8.33212L8.08663 8.19312L8.26763 8.33212L8.19763 8.10878L8.37796 7.97145L8.15429 7.97212L8.08629 7.74678L8.01763 7.97212L7.79429 7.97145L7.97563 8.10878L7.90563 8.33212ZM1.37596 9.50312L1.55729 9.36545L1.73829 9.50312L1.66796 9.27945L1.84829 9.14212L1.62562 9.14278L1.55662 8.91745L1.48862 9.14278L1.26562 9.14212L1.44596 9.27945L1.37596 9.50312ZM2.57429 9.50312L2.75529 9.36545L2.93663 9.50312L2.86629 9.27945L3.04629 9.14212L2.82429 9.14278L2.75496 8.91745L2.68663 9.14278L2.46429 9.14212L2.64396 9.27945L2.57429 9.50312ZM3.89596 9.50312L4.07696 9.36545L4.25796 9.50312L4.18796 9.27945L4.36796 9.14212L4.14429 9.14278L4.07663 8.91745L4.00796 9.14278L3.78562 9.14212L3.96596 9.27945L3.89596 9.50312ZM5.20796 9.50312L5.38863 9.36545L5.56996 9.50312L5.50096 9.27945L5.67996 9.14212L5.45729 9.14278L5.38863 8.91745L5.31996 9.14278L5.09763 9.14212L5.27763 9.27945L5.20796 9.50312ZM6.52429 9.50312L6.70563 9.36545L6.88663 9.50312L6.81763 9.27945L6.99663 9.14212L6.77396 9.14278L6.70529 8.91745L6.63696 9.14278L6.41429 9.14212L6.59429 9.27945L6.52429 9.50312ZM2.01363 10.0888L2.19463 9.94945L2.37563 10.0888L2.30596 9.86478L2.48563 9.72879H2.26296L2.19429 9.50312L2.12596 9.72879H1.90329L2.08363 9.86478L2.01363 10.0888ZM3.21196 10.0888L3.39296 9.94945L3.57396 10.0888L3.50396 9.86478L3.68396 9.72879H3.46096L3.39263 9.50312L3.32396 9.72879H3.10129L3.28196 9.86478L3.21196 10.0888ZM4.53396 10.0888L4.71429 9.94945L4.89562 10.0888L4.82429 9.86478L5.00562 9.72879H4.78329L4.71429 9.50312L4.64562 9.72879H4.42296L4.60329 9.86478L4.53396 10.0888ZM5.84429 10.0888L6.02629 9.94945L6.20763 10.0888L6.13763 9.86478L6.31729 9.72879H6.09496L6.02596 9.50312L5.95763 9.72879H5.73496L5.91529 9.86478L5.84429 10.0888ZM7.16096 10.0888L7.34296 9.94945L7.52429 10.0888L7.45396 9.86478L7.63463 9.72879H7.41229L7.34296 9.50312L7.27429 9.72879H7.05163L7.23196 9.86478L7.16096 10.0888ZM7.90563 9.50312L8.08663 9.36545L8.26763 9.50312L8.19763 9.27945L8.37796 9.14212L8.15429 9.14278L8.08629 8.91745L8.01763 9.14278L7.79429 9.14212L7.97563 9.27945L7.90563 9.50312Z" fill="white"/>
</g>
<defs>
<clipPath id="clip0_546_55759">
<rect width="21.3333" height="21.3333" fill="white" transform="translate(0.453125 0.33252)"/>
</clipPath>
</defs>
</svg>
