<svg width="22" height="22" viewBox="0 0 22 22" fill="none" xmlns="http://www.w3.org/2000/svg">
<path fill-rule="evenodd" clip-rule="evenodd" d="M14.6892 8.33241C14.6892 9.2754 14.3146 10.1798 13.6478 10.8466C12.981 11.5134 12.0767 11.888 11.1337 11.888C10.1907 11.888 9.28632 11.5134 8.61952 10.8466C7.95273 10.1798 7.57813 9.2754 7.57812 8.33241C7.57813 7.38942 7.95273 6.48505 8.61952 5.81825C9.28632 5.15146 10.1907 4.77686 11.1337 4.77686C12.0767 4.77686 12.981 5.15146 13.6478 5.81825C14.3146 6.48505 14.6892 7.38942 14.6892 8.33241ZM12.9115 8.33241C12.9115 8.80391 12.7242 9.25609 12.3908 9.58949C12.0574 9.92289 11.6052 10.1102 11.1337 10.1102C10.6622 10.1102 10.21 9.92289 9.8766 9.58949C9.5432 9.25609 9.3559 8.80391 9.3559 8.33241C9.3559 7.86091 9.5432 7.40873 9.8766 7.07533C10.21 6.74193 10.6622 6.55463 11.1337 6.55463C11.6052 6.55463 12.0574 6.74193 12.3908 7.07533C12.7242 7.40873 12.9115 7.86091 12.9115 8.33241Z" fill="#263238"/>
<path fill-rule="evenodd" clip-rule="evenodd" d="M11.1293 1.22168C5.72934 1.22168 1.35156 5.59946 1.35156 10.9995C1.35156 16.3995 5.72934 20.7772 11.1293 20.7772C16.5293 20.7772 20.9071 16.3995 20.9071 10.9995C20.9071 5.59946 16.5293 1.22168 11.1293 1.22168ZM3.12934 10.9995C3.12934 12.8572 3.76312 14.5675 4.82534 15.9257C5.57132 14.946 6.5337 14.1521 7.63728 13.606C8.74087 13.0598 9.95578 12.7762 11.1871 12.7772C12.4025 12.7761 13.6022 13.0524 14.6946 13.585C15.7871 14.1177 16.7435 14.8927 17.4911 15.851C18.2613 14.8409 18.7799 13.6619 19.0039 12.4115C19.228 11.1612 19.1511 9.87549 18.7796 8.66078C18.4081 7.44607 17.7526 6.33728 16.8676 5.42616C15.9825 4.51504 14.8931 3.82778 13.6897 3.42124C12.4862 3.01471 11.2033 2.90059 9.94699 3.08832C8.69069 3.27606 7.49715 3.76025 6.46514 4.50084C5.43312 5.24143 4.59228 6.21712 4.01221 7.34719C3.43214 8.47725 3.1295 9.72921 3.12934 10.9995ZM11.1293 18.9995C9.29285 19.0022 7.5118 18.3704 6.08756 17.211C6.66083 16.3903 7.42386 15.7203 8.31173 15.2578C9.1996 14.7954 10.186 14.5543 11.1871 14.555C12.1757 14.5542 13.1502 14.7893 14.0297 15.2407C14.9092 15.6921 15.6683 16.3469 16.244 17.1506C14.8087 18.3476 12.9983 19.0021 11.1293 18.9995Z" fill="#263238"/>
</svg>
