<svg width="76" height="25" viewBox="0 0 76 25" fill="none" xmlns="http://www.w3.org/2000/svg">
<path d="M7.95 18.75C6.86667 18.75 5.875 18.6167 4.975 18.35C4.09167 18.0833 3.3 17.6917 2.6 17.175C1.91667 16.6583 1.3 16.0333 0.75 15.3L3.1 12.625C3.91667 13.7583 4.725 14.5333 5.525 14.95C6.34167 15.35 7.225 15.55 8.175 15.55C8.69167 15.55 9.15 15.4833 9.55 15.35C9.96667 15.2 10.2917 14.9917 10.525 14.725C10.7583 14.4583 10.875 14.1417 10.875 13.775C10.875 13.5083 10.8167 13.2667 10.7 13.05C10.5833 12.8167 10.4167 12.6167 10.2 12.45C9.98333 12.2667 9.725 12.1083 9.425 11.975C9.125 11.825 8.79167 11.7 8.425 11.6C8.05833 11.4833 7.65833 11.3917 7.225 11.325C6.29167 11.1083 5.475 10.85 4.775 10.55C4.075 10.2333 3.49167 9.85 3.025 9.4C2.55833 8.93333 2.20833 8.40833 1.975 7.825C1.75833 7.24167 1.65 6.58333 1.65 5.85C1.65 5.1 1.81667 4.40833 2.15 3.775C2.48333 3.125 2.94167 2.56667 3.525 2.1C4.125 1.63333 4.80833 1.275 5.575 1.025C6.35833 0.774999 7.18333 0.649999 8.05 0.649999C9.11667 0.649999 10.05 0.774999 10.85 1.025C11.65 1.25833 12.3417 1.6 12.925 2.05C13.525 2.5 14.025 3.05 14.425 3.7L12.05 6C11.7 5.53333 11.3167 5.14167 10.9 4.825C10.5 4.50833 10.0583 4.275 9.575 4.125C9.10833 3.95833 8.625 3.875 8.125 3.875C7.575 3.875 7.1 3.95 6.7 4.1C6.3 4.23333 5.98333 4.43333 5.75 4.7C5.53333 4.96667 5.425 5.29167 5.425 5.675C5.425 5.975 5.5 6.24167 5.65 6.475C5.8 6.70833 6.01667 6.91667 6.3 7.1C6.58333 7.26667 6.925 7.41667 7.325 7.55C7.725 7.68333 8.16667 7.8 8.65 7.9C9.56667 8.08333 10.3917 8.325 11.125 8.625C11.8583 8.925 12.4833 9.29167 13 9.725C13.5333 10.1417 13.9417 10.6417 14.225 11.225C14.5083 11.7917 14.65 12.4333 14.65 13.15C14.65 14.3333 14.3667 15.3417 13.8 16.175C13.2333 17.0083 12.45 17.65 11.45 18.1C10.45 18.5333 9.28333 18.75 7.95 18.75ZM24.5715 18.75C23.1382 18.75 21.8882 18.4583 20.8215 17.875C19.7548 17.2917 18.9215 16.4917 18.3215 15.475C17.7215 14.4583 17.4215 13.2917 17.4215 11.975C17.4215 10.9583 17.5882 10.025 17.9215 9.175C18.2548 8.325 18.7215 7.59167 19.3215 6.975C19.9215 6.34167 20.6298 5.85833 21.4465 5.525C22.2798 5.175 23.1798 5 24.1465 5C25.0465 5 25.8798 5.16667 26.6465 5.5C27.4132 5.81667 28.0715 6.275 28.6215 6.875C29.1882 7.45833 29.6215 8.15 29.9215 8.95C30.2215 9.75 30.3548 10.625 30.3215 11.575L30.2965 12.675H19.6715L19.0965 10.5H27.3715L26.9715 10.95V10.4C26.9382 9.95 26.7882 9.54167 26.5215 9.175C26.2715 8.80833 25.9465 8.525 25.5465 8.325C25.1465 8.125 24.6965 8.025 24.1965 8.025C23.4632 8.025 22.8382 8.16667 22.3215 8.45C21.8215 8.73333 21.4382 9.15 21.1715 9.7C20.9048 10.25 20.7715 10.9167 20.7715 11.7C20.7715 12.5 20.9382 13.1917 21.2715 13.775C21.6215 14.3583 22.1048 14.8167 22.7215 15.15C23.3548 15.4667 24.0965 15.625 24.9465 15.625C25.5298 15.625 26.0632 15.5333 26.5465 15.35C27.0298 15.1667 27.5465 14.85 28.0965 14.4L29.7965 16.775C29.3132 17.2083 28.7798 17.575 28.1965 17.875C27.6132 18.1583 27.0132 18.375 26.3965 18.525C25.7798 18.675 25.1715 18.75 24.5715 18.75ZM34.9699 18.5V1.925H38.5199V18.5H34.9699ZM32.4949 8.45V5.275H41.2199V8.45H32.4949ZM45.5588 18.5V1.925H49.1088V18.5H45.5588ZM43.0838 8.45V5.275H51.8088V8.45H43.0838ZM54.8977 18.5V-2.38419e-07H58.4477V18.5H54.8977ZM64.2842 24.25L67.1842 17.45L67.2342 19.5L60.7842 5.275H64.8092L68.0342 12.9C68.1675 13.1833 68.2925 13.5167 68.4092 13.9C68.5425 14.2667 68.6508 14.625 68.7342 14.975L68.1342 15.225C68.2342 14.9417 68.3508 14.6167 68.4842 14.25C68.6175 13.8833 68.7508 13.4917 68.8842 13.075L71.6592 5.275H75.7092L70.1592 18.5L67.8842 24.25H64.2842Z" fill="white"/>
</svg>
